<svg width="17" height="17" viewBox="0 0 17 17" fill="none" xmlns="http://www.w3.org/2000/svg">
<path d="M7.33594 0.125C11.3102 0.125128 14.5469 3.36159 14.5469 7.33594C14.5468 9.03147 13.9551 10.5912 12.9707 11.8242L16.1377 14.9912C16.4543 15.3071 16.4542 15.8212 16.1377 16.1377C15.8211 16.4543 15.3079 16.4542 14.9912 16.1377L11.8242 12.9707C10.5911 13.9551 9.03144 14.5468 7.33594 14.5469C3.3616 14.5469 0.125106 11.3103 0.125 7.33594C0.125 3.36152 3.36154 0.125 7.33594 0.125ZM7.33594 1.74609C4.24064 1.74609 1.74609 4.24062 1.74609 7.33594C1.7462 10.4312 4.2407 12.9248 7.33594 12.9248C10.4311 12.9247 12.9247 10.4311 12.9248 7.33594C12.9248 4.2407 10.4311 1.74622 7.33594 1.74609Z" fill="#065787" stroke="#065787" stroke-width="0.25"/>
</svg>
